<?xml version="1.0" encoding="UTF-8"?><svg id="Camada_2" xmlns="http://www.w3.org/2000/svg" viewBox="0 0 74.92 69.33"><defs><style>.cls-1{fill:#e6e6e6;stroke-width:0px;}</style></defs><g id="Camada_1-2"><path class="cls-1" d="m30.23,47.71c1.36-2.01,2.64-3.9,3.92-5.79,5.3-7.87,10.6-15.74,15.9-23.6,3.22-4.79,6.44-9.58,9.68-14.36,2.12-3.13,5.28-4.49,8.63-3.75,3.23.71,5.88,3.71,6.44,7.22.44,2.74-.26,5.16-1.79,7.44-6.34,9.37-12.65,18.75-18.97,28.13-5.02,7.46-10.02,14.93-15.06,22.38-3.02,4.46-7.89,5.24-12.15,1.94-6.68-5.19-13.31-10.45-19.96-15.67-1.15-.9-2.32-1.77-3.46-2.68-4.87-3.89-4.43-11.79.84-15.12,2.68-1.69,6.14-1.59,8.78.44,4.69,3.59,9.31,7.27,13.96,10.91,1.04.81,2.09,1.62,3.25,2.53Z"/></g></svg>